/* XPM */
static char * icon_linux_xpm[] = {
"32 32 163 2",
"  	c None",
". 	c #000000",
"+ 	c #080C04",
"@ 	c #304D19",
"# 	c #2A3F15",
"$ 	c #0D1506",
"% 	c #4D7826",
"& 	c #69A434",
"* 	c #304A18",
"= 	c #A1F950",
"- 	c #203010",
"; 	c #040502",
"> 	c #87D244",
", 	c #111B08",
"' 	c #294015",
") 	c #88D244",
"! 	c #1F2F0F",
"~ 	c #517F28",
"{ 	c #79BB3B",
"] 	c #324D1A",
"^ 	c #70AE39",
"/ 	c #0C1206",
"( 	c #0A0501",
"_ 	c #140C03",
": 	c #091204",
"< 	c #8AD646",
"[ 	c #9CF34E",
"} 	c #4B7425",
"| 	c #24170A",
"1 	c #A37B4D",
"2 	c #E3B57F",
"3 	c #EEC391",
"4 	c #DDB383",
"5 	c #735237",
"6 	c #020A00",
"7 	c #5C9931",
"8 	c #92DF49",
"9 	c #74B33A",
"0 	c #7EC33E",
"a 	c #57872B",
"b 	c #221507",
"c 	c #C8904F",
"d 	c #EFBB7F",
"e 	c #F5CA97",
"f 	c #FFDAAD",
"g 	c #FFE9BE",
"h 	c #FFEABA",
"i 	c #9E7255",
"j 	c #0D1101",
"k 	c #69A736",
"l 	c #87D245",
"m 	c #83CA41",
"n 	c #598C2D",
"o 	c #825929",
"p 	c #E1A55F",
"q 	c #E5B172",
"r 	c #F2C085",
"s 	c #FBCD98",
"t 	c #FFDAAB",
"u 	c #FFE7C0",
"v 	c #FFF0C1",
"w 	c #8F6847",
"x 	c #1B1105",
"y 	c #CA8939",
"z 	c #E39E4A",
"A 	c #EEAC58",
"B 	c #F8BA6C",
"C 	c #FDC581",
"D 	c #FFCF95",
"E 	c #FFEAC1",
"F 	c #F0C28F",
"G 	c #0E0500",
"H 	c #7A4A0E",
"I 	c #E99023",
"J 	c #ED9627",
"K 	c #F6A133",
"L 	c #FCAF49",
"M 	c #FFBA63",
"N 	c #FEC37B",
"O 	c #FCCE96",
"P 	c #FFDAAC",
"Q 	c #FFD19C",
"R 	c #34220F",
"S 	c #090500",
"T 	c #C6711A",
"U 	c #ED8A2C",
"V 	c #F5912D",
"W 	c #FC9B2A",
"X 	c #FFA430",
"Y 	c #FEAF48",
"Z 	c #FBBA67",
"` 	c #F7C384",
" .	c #FACD98",
"..	c #F7C589",
"+.	c #2A1A0B",
"@.	c #62360E",
"#.	c #EE8436",
"$.	c #F48644",
"%.	c #FC8D44",
"&.	c #FF9438",
"*.	c #FE9C2D",
"=.	c #FBA332",
"-.	c #F7AE53",
";.	c #F0B773",
">.	c #F8C283",
",.	c #CF9B5C",
"'.	c #050200",
").	c #C36D29",
"!.	c #F88A47",
"~.	c #FE8B4F",
"{.	c #FF8C50",
"].	c #FF8E47",
"^.	c #FB9333",
"/.	c #F59826",
"(.	c #EEA344",
"_.	c #F0AD5F",
":.	c #F1A856",
"<.	c #583B19",
"[.	c #734314",
"}.	c #FA963F",
"|.	c #FE974D",
"1.	c #FF9250",
"2.	c #FF8E51",
"3.	c #FC8A4C",
"4.	c #F68D34",
"5.	c #F49421",
"6.	c #E89736",
"7.	c #A0692A",
"8.	c #3F270B",
"9.	c #020000",
"0.	c #D08431",
"a.	c #FFA44C",
"b.	c #FFA251",
"c.	c #FF994E",
"d.	c #FF914C",
"e.	c #FF8C41",
"f.	c #ED8523",
"g.	c #A56210",
"h.	c #41270A",
"i.	c #634214",
"j.	c #FFB849",
"k.	c #FFB553",
"l.	c #FFAE51",
"m.	c #FFA148",
"n.	c #F18834",
"o.	c #9B5418",
"p.	c #2F1B01",
"q.	c #E0A835",
"r.	c #FFD754",
"s.	c #FFC94F",
"t.	c #F09A39",
"u.	c #844D17",
"v.	c #1E1002",
"w.	c #756316",
"x.	c #FFFD47",
"y.	c #F8BA3A",
"z.	c #81581B",
"A.	c #0E0700",
"B.	c #030400",
"C.	c #DEC223",
"D.	c #836C17",
"E.	c #0E0E01",
"F.	c #1F1C03",
"                                                                ",
"                                                                ",
"                                                                ",
"                                                                ",
"                                                                ",
"                                            .     .             ",
"                                          + @ . . # $           ",
"                                        . % & . * = - .         ",
"                                      . ; > , ' ) ! .           ",
"                                    . . ~ { ] ^ / .             ",
"                          . . ( _ . . : < [ } . . .             ",
"                        . | 1 2 3 4 5 6 7 8 9 0 a .             ",
"                      . b c d e f g h i j k l m n .             ",
"                      . o p q r s t u v w . . . .               ",
"                    . x y z A B C D t E F G .                   ",
"                    . H I J K L M N O P Q R .                   ",
"                  . S T U V W X Y Z `  ...+.                    ",
"                  . @.#.$.%.&.*.=.-.;.>.,..                     ",
"                . '.).!.~.{.].^./.(._.:.<..                     ",
"                . [.}.|.1.2.3.4.5.6.7.8..                       ",
"              . 9.0.a.b.c.d.e.f.g.h.. .                         ",
"              . i.j.k.l.m.n.o.p.. .                             ",
"              . q.r.s.t.u.v.. .                                 ",
"            . w.x.y.z.A.. .                                     ",
"            B.C.D.. . .                                         ",
"            E.F.. .                                             ",
"            .                                                   ",
"                                                                ",
"                                                                ",
"                                                                ",
"                                                                ",
"                                                                "};
