/* XPM */
static char *carrot____x__[] = {
/* columns rows colors chars-per-pixel */
"32 32 219 2",
"   c #363617",
".  c #3B3719",
"X  c #273020",
"o  c #34302B",
"O  c #543B1C",
"+  c #683F10",
"@  c #653D19",
"#  c #37541C",
"$  c #37561C",
"%  c #3C5C22",
"&  c #7E490D",
"*  c #6A461F",
"=  c #6C481C",
"-  c #774315",
";  c #405A27",
":  c #40453C",
">  c #584837",
",  c #465A33",
"<  c #475E31",
"1  c #624322",
"2  c #674D2F",
"3  c #695126",
"4  c #66502A",
"5  c #7E5321",
"6  c #6F5335",
"7  c #4F7B28",
"8  c #486130",
"9  c #4B6731",
"0  c #506E35",
"q  c #507230",
"w  c #73672B",
"e  c #746B33",
"r  c #5B4F40",
"t  c #4B5046",
"y  c #4D5940",
"u  c #4E5E40",
"i  c #5C5348",
"p  c #5F564D",
"a  c #53584F",
"s  c #585756",
"d  c #5B5E57",
"f  c #685540",
"g  c #60574D",
"h  c #635C54",
"j  c #5A664F",
"k  c #6B6560",
"l  c #6C6660",
"z  c #6D7069",
"x  c #6D706A",
"c  c #6F746B",
"v  c #76736F",
"b  c #7B7B7B",
"n  c #7D7B79",
"m  c #86561E",
"M  c #887A12",
"N  c #B1631D",
"B  c #B16625",
"V  c #B37223",
"C  c #B27528",
"Z  c #B47D3D",
"A  c #CC7123",
"S  c #CC7E20",
"D  c #CC772B",
"F  c #DE7B34",
"G  c #876746",
"H  c #8D6E4B",
"J  c #92724D",
"K  c #807E7C",
"L  c #817F7D",
"P  c #52822B",
"I  c #56862B",
"U  c #53852C",
"Y  c #5A8C2D",
"T  c #5D912F",
"R  c #6FAD37",
"E  c #75B63A",
"W  c #7BBF3D",
"Q  c #7CBF3E",
"!  c #BF9428",
"~  c #C5832E",
"^  c #D88020",
"/  c #CA9D2B",
"(  c #DA8F32",
")  c #EA8825",
"_  c #E68B28",
"`  c #EA952D",
"'  c #F3902E",
"]  c #F4972C",
"[  c #FA9A2E",
"{  c #E48034",
"}  c #E58E3A",
"|  c #F2873B",
" . c #F2873D",
".. c #F28A3A",
"X. c #EA9E3D",
"o. c #FE9B31",
"O. c #FB9338",
"+. c #FE943A",
"@. c #FEA333",
"#. c #FBA334",
"$. c #F4A138",
"%. c #FFDE35",
"&. c #AA804F",
"*. c #B9946B",
"=. c #D08E43",
"-. c #CF9248",
";. c #C19055",
":. c #EF8444",
">. c #EE8941",
",. c #FA8D42",
"<. c #FE8F46",
"1. c #F98A4A",
"2. c #FA8A4A",
"3. c #F98E4C",
"4. c #FE8C4D",
"5. c #FE8E4E",
"6. c #E39C47",
"7. c #FA9347",
"8. c #F79B40",
"9. c #FD914D",
"0. c #FE974E",
"q. c #F7984A",
"w. c #FD9D4C",
"e. c #DEA35C",
"r. c #F4AF40",
"t. c #FEAE46",
"y. c #F9A548",
"u. c #FEA54F",
"i. c #F6AD4E",
"p. c #FBAD49",
"a. c #FFAE4C",
"s. c #FCBA44",
"d. c #FFB54E",
"f. c #ECAA59",
"g. c #C49C6D",
"h. c #C79C74",
"j. c #CDA16E",
"k. c #D6A364",
"l. c #E4A963",
"z. c #E5AC68",
"x. c #EDB36D",
"c. c #FEB961",
"v. c #FBB964",
"b. c #F6B76A",
"n. c #E5B57C",
"m. c #EFBB7E",
"M. c #85CE42",
"N. c #86CE45",
"B. c #87CF45",
"V. c #88D344",
"C. c #89D544",
"Z. c #91E148",
"A. c #93E34A",
"S. c #97EA4B",
"D. c #FFD048",
"F. c #F7C17F",
"G. c #FEC37B",
"H. c #FCC37D",
"J. c #848381",
"K. c #888685",
"L. c #8A8987",
"P. c #8C8C8A",
"I. c gray56",
"U. c #91918D",
"Y. c #919190",
"T. c gray58",
"R. c #9A9A9A",
"E. c #9D9D9D",
"W. c gray63",
"Q. c #ACACAC",
"!. c gray68",
"~. c gray70",
"^. c #B4B4B4",
"/. c #B6B6B6",
"(. c gray72",
"). c #BABAB9",
"_. c gray73",
"`. c #BBBBBB",
"'. c #E6B780",
"]. c #F2C087",
"[. c #F1C590",
"{. c #F8C991",
"}. c #FECD91",
"|. c #FDCC92",
" X c #F4CA99",
".X c #F8CE9E",
"XX c #FAD2A3",
"oX c #FCD4A3",
"OX c #FCD4A5",
"+X c #FFD6A5",
"@X c #FED7A9",
"#X c #FFDBAE",
"$X c #FFDEB0",
"%X c #FFDDB3",
"&X c #FFE2B8",
"*X c gray77",
"=X c gray78",
"-X c #C8C8C8",
";X c LightGray",
":X c gray83",
">X c gray84",
",X c #D8D8D8",
"<X c #DDDDDD",
"1X c gray87",
"2X c #DFDFDF",
"3X c #E7E7E7",
"4X c gray91",
"5X c #E9E9E9",
"6X c #EFEFEF",
"7X c gray94",
"8X c #F3F3F3",
"9X c #F9F9F9",
"0X c gray98",
"qX c #FBFBFB",
"wX c gray99",
"eX c #FDFDFD",
"rX c #FEFEFE",
"tX c gray100",
"yX c None",
/* pixels */
"yXyXyXyXyXyXyXyXyXyXyXyXyXyXyXyXyXyXyXyXyXyXyXyXyXyXyXyXyXyXyXyX",
"yXyXyXyXyXyXyXyXyXyXyXyXyXyXyXyXyXyXyXyXyXyXyXyXyXyXyXyXyXyXyXyX",
"yXyXyXyXyXyXyXyXyXyXyXyXyXyXyXyXyXyXyXyXyXyXyXyXyXyXyXyXyXyXyXyX",
"yXyXyXyXyXyXyXyXyXyXyXyXyXyXyXyXyXyXyXyXyXyXtXtXtXyXyXyXyXyXyXyX",
"yXyXyXyXyXyXyXyXyXyXyXyXyXyXyXyXyXyXyXyXtXtXtXtXtXtXtXyXyXyXyXyX",
"yXyXyXyXyXyXyXyXyXyXyXyXyXyXyXyXyXyXyXtXqXd x 7X).: >XtXyXyXyXyX",
"yXyXyXyXyXyXyXyXyXyXyXyXyXyXyXyXyXyXtXtXQ.T q I.0 Q t tXyXyXyXyX",
"yXyXyXyXyXyXyXyXyXyXyXyXyXyXyXyXtXtXtX8Xu M.X 9 C.8 ~.tXyXyXyXyX",
"yXyXyXyXyXyXyXyXyXyXyXyXyXtXtXtXtXtXtXb R I # W y >XtXtXyXyXyXyX",
"yXyXyXyXyXyXyXyXyXyXyXtXtXeX,X^.`.6X:X; A.E Y a 5XtXtXtXyXyXyXyX",
"yXyXyXyXyXyXyXyXyXyXtXtX*Xp 6 J H f o P N.V.$ , c wXtXyXyXyXyXyX",
"yXyXyXyXyXyXyXyXyXyXtX/.O ;.'. X@XOX*.. U B.Z.S.7 W.tXyXyXyXyXyX",
"yXyXyXyXyXyXyXyXyXtXrXi Z k.n.[.XX%X&Xh.  % < j z (.tXyXyXyXyXyX",
"yXyXyXyXyXyXyXyXtXtX_.= -.e.x.F.|.+X%X$XG T.eXrXtXtXyXyXyXyXyXyX",
"yXyXyXyXyXyXyXyXtXtXh V ( X.i.v.G.}.oX#Xg.K.tXtXtXyXyXyXyXyXyXyX",
"yXyXyXyXyXyXyXyXtX=X+ ^ _ ] #.t.c.H.{..Xj.K tXtXyXyXyXyXyXyXyXyX",
"yXyXyXyXyXyXyXtXtXl N { ..O.o.@.p.b.m.].&.R.tXtXyXyXyXyXyXyXyXyX",
"yXyXyXyXyXyXyXtX;X@ F :.2.<.+.[ $.f.z.l.2 <XtXyXyXyXyXyXyXyXyXyX",
"yXyXyXyXyXyXtXtXv B >.3.5.4.,.' ` 6.=.5 J.tXtXyXyXyXyXyXyXyXyXyX",
"yXyXyXyXyXyXtX1X1 } q.0.9.1. .) S m > E.0XtXyXyXyXyXyXyXyXyXyXyX",
"yXyXyXyXyXtXtXL C y.u.w.7.| A & r !.9XtXtXyXyXyXyXyXyXyXyXyXyXyX",
"yXyXyXyXyXtX3X4 r.d.a.8.D - g `.eXtXtXtXyXyXyXyXyXyXyXyXyXyXyXyX",
"yXyXyXyXtXtXP.! D.s.~ * k -XtXtXtXtXyXyXyXyXyXyXyXyXyXyXyXyXyXyX",
"yXyXyXyXtX6Xe %./ 3 n 2XtXtXtXtXyXyXyXyXyXyXyXyXyXyXyXyXyXyXyXyX",
"yXyXyXyXtXY.M w L.4XtXtXtXyXyXyXyXyXyXyXyXyXyXyXyXyXyXyXyXyXyXyX",
"yXyXyXyXtXs U.7XtXtXtXyXyXyXyXyXyXyXyXyXyXyXyXyXyXyXyXyXyXyXyXyX",
"yXyXyXyXyXtXtXtXtXyXyXyXyXyXyXyXyXyXyXyXyXyXyXyXyXyXyXyXyXyXyXyX",
"yXyXyXyXyXyXyXyXyXyXyXyXyXyXyXyXyXyXyXyXyXyXyXyXyXyXyXyXyXyXyXyX",
"yXyXyXyXyXyXyXyXyXyXyXyXyXyXyXyXyXyXyXyXyXyXyXyXyXyXyXyXyXyXyXyX",
"yXyXyXyXyXyXyXyXyXyXyXyXyXyXyXyXyXyXyXyXyXyXyXyXyXyXyXyXyXyXyXyX",
"yXyXyXyXyXyXyXyXyXyXyXyXyXyXyXyXyXyXyXyXyXyXyXyXyXyXyXyXyXyXyXyX",
"yXyXyXyXyXyXyXyXyXyXyXyXyXyXyXyXyXyXyXyXyXyXyXyXyXyXyXyXyXyXyXyX"
};
